<?xml version="1.0" encoding="UTF-8" standalone="no"?>
<!-- Created with Inkscape (http://www.inkscape.org/) -->

<svg
   xmlns:dc="http://purl.org/dc/elements/1.1/"
   xmlns:cc="http://creativecommons.org/ns#"
   xmlns:rdf="http://www.w3.org/1999/02/22-rdf-syntax-ns#"
   xmlns:svg="http://www.w3.org/2000/svg"
   xmlns="http://www.w3.org/2000/svg"
   xmlns:sodipodi="http://sodipodi.sourceforge.net/DTD/sodipodi-0.dtd"
   xmlns:inkscape="http://www.inkscape.org/namespaces/inkscape"
   width="512mm"
   height="512mm"
   viewBox="0 0 512 512"
   version="1.1"
   id="svg1128"
   inkscape:version="0.92.3 (2405546, 2018-03-11)"
   sodipodi:docname="phone.svg">
  <defs
     id="defs1122" />
  <sodipodi:namedview
     id="base"
     pagecolor="#ffffff"
     bordercolor="#666666"
     borderopacity="1.0"
     inkscape:pageopacity="0.0"
     inkscape:pageshadow="2"
     inkscape:zoom="0.36"
     inkscape:cx="396.85039"
     inkscape:cy="1116.8154"
     inkscape:document-units="mm"
     inkscape:current-layer="layer1"
     showgrid="false"
     inkscape:window-width="1853"
     inkscape:window-height="1025"
     inkscape:window-x="67"
     inkscape:window-y="27"
     inkscape:window-maximized="1" />
  <metadata
     id="metadata1125">
    <rdf:RDF>
      <cc:Work
         rdf:about="">
        <dc:format>image/svg+xml</dc:format>
        <dc:type
           rdf:resource="http://purl.org/dc/dcmitype/StillImage" />
        <dc:title></dc:title>
      </cc:Work>
    </rdf:RDF>
  </metadata>
  <g
     inkscape:label="Capa 1"
     inkscape:groupmode="layer"
     id="layer1"
     transform="translate(0,215)">
    <g
       transform="matrix(3.7002622,0,0,-3.7002622,-2436.4194,7401.4505)"
       id="g2793">
      <g
         transform="translate(680,1943)"
         id="g118">
        <path
           inkscape:connector-curvature="0"
           id="path120"
           style="fill:#262626;fill-opacity:1;fill-rule:nonzero;stroke:none"
           d="m 0,0 h -2 c -1.103,0 -2,0.897 -2,2 v 72 c 0,1.103 0.897,2 2,2 H 0 Z M -8,74 V 2 c 0,-3.309 2.691,-6 6,-6 h 6 v 84 h -6 c -3.309,0 -6,-2.691 -6,-6" />
      </g>
      <g
         transform="translate(762,1939)"
         id="g122">
        <path
           inkscape:connector-curvature="0"
           id="path124"
           style="fill:#262626;fill-opacity:1;fill-rule:nonzero;stroke:none"
           d="m 0,0 h -68 c -1.103,0 -2,0.897 -2,2 V 5.35 C -69.373,5.127 -68.702,5 -68,5 H 0 C 0.702,5 1.373,5.127 2,5.35 V 2 C 2,0.897 1.103,0 0,0 m 0,-9 h -68 c -1.103,0 -2,0.897 -2,2 v 3.35 C -69.373,-3.873 -68.702,-4 -68,-4 H 0 c 0.702,0 1.373,0.127 2,0.35 V -7 C 2,-8.103 1.103,-9 0,-9 M 0,97 H -16 V 93 H 0 c 1.103,0 2,-0.897 2,-2 V 11 C 2,9.897 1.103,9 0,9 h -68 c -1.103,0 -2,0.897 -2,2 v 80 c 0,1.103 0.897,2 2,2 h 16 v 4 h -16 c -3.309,0 -6,-2.691 -6,-6 V -7 c 0,-3.309 2.691,-6 6,-6 H 0 c 3.309,0 6,2.691 6,6 v 98 c 0,3.309 -2.691,6 -6,6" />
      </g>
      <g
         transform="translate(780,1945)"
         id="g126">
        <path
           inkscape:connector-curvature="0"
           id="path128"
           style="fill:#262626;fill-opacity:1;fill-rule:nonzero;stroke:none"
           d="m 0,0 c 0,-1.103 -0.897,-2 -2,-2 h -2 v 76 h 2 c 1.103,0 2,-0.897 2,-2 z M -2,78 H -8 V -6 h 6 c 3.309,0 6,2.691 6,6 v 72 c 0,3.309 -2.691,6 -6,6" />
      </g>
      <path
         inkscape:connector-curvature="0"
         id="path130"
         style="fill:#262626;fill-opacity:1;fill-rule:nonzero;stroke:none"
         d="m 730,2012 h -32 v -4 h 32 z" />
      <path
         inkscape:connector-curvature="0"
         id="path132"
         style="fill:#262626;fill-opacity:1;fill-rule:nonzero;stroke:none"
         d="m 698,1977 h 32 v 4 h -32 z" />
      <path
         inkscape:connector-curvature="0"
         id="path134"
         style="fill:#262626;fill-opacity:1;fill-rule:nonzero;stroke:none"
         d="m 730,1991 h -32 v -4 h 32 z" />
      <path
         inkscape:connector-curvature="0"
         id="path136"
         style="fill:#262626;fill-opacity:1;fill-rule:nonzero;stroke:none"
         d="m 730,2001 h -32 v -4 h 32 z" />
      <g
         transform="translate(698,1967)"
         id="g138">
        <path
           inkscape:connector-curvature="0"
           id="path140"
           style="fill:#e0e0e0;fill-opacity:1;fill-rule:nonzero;stroke:none"
           d="m 0,0 c 0,1.1 0.9,2 2,2 h 56 c 1.1,0 2,-0.9 2,-2 v -9 c 0,-1.1 -0.9,-2 -2,-2 H 2 c -1.1,0 -2,0.9 -2,2 z" />
      </g>
      <g
         transform="translate(758,1979)"
         id="g142">
        <path
           inkscape:connector-curvature="0"
           id="path144"
           style="fill:#e0e0e0;fill-opacity:1;fill-rule:nonzero;stroke:none"
           d="m 0,0 c 0,-1.1 -0.9,-2 -2,-2 h -18 c -1.1,0 -2,0.9 -2,2 v 31 c 0,1.1 0.9,2 2,2 h 18 c 1.1,0 2,-0.9 2,-2 z" />
      </g>
      <g
         transform="translate(714,2028)"
         id="g146">
        <path
           inkscape:connector-curvature="0"
           id="path148"
           style="fill:#ff4c48;fill-opacity:1;fill-rule:nonzero;stroke:none"
           d="M 0,0 H 28 V 12 H 18 v 6 c 0,2.206 -1.794,4 -4,4 -2.206,0 -4,-1.794 -4,-4 V 12 H 0 Z M 32,-4 H -4 v 16 c 0,2.206 1.794,4 4,4 h 6 v 2 c 0,4.411 3.589,8 8,8 4.411,0 8,-3.589 8,-8 v -2 h 6 c 2.206,0 4,-1.794 4,-4 z" />
      </g>
    </g>
  </g>
</svg>
