<?xml version="1.0" encoding="UTF-8" standalone="no"?>
<!-- Created with Inkscape (http://www.inkscape.org/) -->

<svg
   xmlns:dc="http://purl.org/dc/elements/1.1/"
   xmlns:cc="http://creativecommons.org/ns#"
   xmlns:rdf="http://www.w3.org/1999/02/22-rdf-syntax-ns#"
   xmlns:svg="http://www.w3.org/2000/svg"
   xmlns="http://www.w3.org/2000/svg"
   xmlns:sodipodi="http://sodipodi.sourceforge.net/DTD/sodipodi-0.dtd"
   xmlns:inkscape="http://www.inkscape.org/namespaces/inkscape"
   width="512mm"
   height="512mm"
   viewBox="0 0 512 512"
   version="1.1"
   id="svg1128"
   inkscape:version="0.92.3 (2405546, 2018-03-11)"
   sodipodi:docname="nose.svg">
  <defs
     id="defs1122" />
  <sodipodi:namedview
     id="base"
     pagecolor="#ffffff"
     bordercolor="#666666"
     borderopacity="1.0"
     inkscape:pageopacity="0.0"
     inkscape:pageshadow="2"
     inkscape:zoom="0.36"
     inkscape:cx="396.85039"
     inkscape:cy="1116.8154"
     inkscape:document-units="mm"
     inkscape:current-layer="layer1"
     showgrid="false"
     inkscape:window-width="1853"
     inkscape:window-height="1025"
     inkscape:window-x="67"
     inkscape:window-y="27"
     inkscape:window-maximized="1" />
  <metadata
     id="metadata1125">
    <rdf:RDF>
      <cc:Work
         rdf:about="">
        <dc:format>image/svg+xml</dc:format>
        <dc:type
           rdf:resource="http://purl.org/dc/dcmitype/StillImage" />
        <dc:title></dc:title>
      </cc:Work>
    </rdf:RDF>
  </metadata>
  <g
     inkscape:label="Capa 1"
     inkscape:groupmode="layer"
     id="layer1"
     transform="translate(0,215)">
    <g
       id="g2756"
       transform="matrix(10.342495,0,0,10.342495,-1085.0619,1254.418)">
      <g
         transform="matrix(0.35277777,0,0,-0.35277777,130.08681,-132.33376)"
         id="g168">
        <path
           inkscape:connector-curvature="0"
           id="path170"
           style="fill:#ff4c48;fill-opacity:1;fill-rule:nonzero;stroke:none"
           d="m 0,0 c -3.309,0 -6,-2.692 -6,-6 0,-3.309 2.691,-6.001 6,-6.001 3.309,0 6,2.692 6,6.001 0,3.308 -2.691,6 -6,6 m 0,-16.001 c -5.514,0 -10,4.486 -10,10.001 0,5.514 4.486,10 10,10 5.514,0 10,-4.486 10,-10 0,-5.515 -4.486,-10.001 -10,-10.001" />
      </g>
      <path
         inkscape:connector-curvature="0"
         id="path172"
         style="fill:#262626;fill-opacity:1;fill-rule:nonzero;stroke:none;stroke-width:0.35277775"
         d="m 149.84236,-96.347333 h -39.51111 v -1.41111 h 39.51111 z m -36.33611,-4.233327 h 33.16111 v 1.411107 h -33.16111 z m -0.008,-23.28333 c -0.40464,0 -0.60149,-0.0692 -0.68298,-0.10901 0.0342,-0.0871 0.139,-0.27799 0.45685,-0.56233 l 15.1571,-13.54384 c 0.89817,-0.80257 2.41652,-0.80293 3.3147,0 l 15.15709,13.54349 c 0.31786,0.28398 0.42263,0.4759 0.45685,0.56268 -0.0815,0.0399 -0.27834,0.10901 -0.68298,0.10901 h -28.58276 v 1.41111 h 1.76389 v 20.46111 h -3.52778 v -21.87222 z m 20.46922,19.05 h -7.76181 c -0.77823,0 -1.41076,0.63147 -1.41076,1.4097 v 1.41252 h -3.52778 v -17.63889 h 15.875 v -1.41111 h -15.875 v -1.41111 h 17.63889 v 20.46111 h -3.52778 v -1.41252 c 0,-0.77823 -0.63253,-1.4097 -1.41076,-1.4097 m -3.4e-4,2.82222 h -7.76112 v -1.41111 h 7.76111 z m 9.87778,0 h -3.52779 v -20.46111 h 3.52778 z m 5.99828,2.822217 h -1.76496 v -1.412517 c 0,-0.77788 -0.63182,-1.4097 -1.41005,-1.4097 h -1.41217 v -20.46111 h 1.41887 c 1.42875,0 1.88242,-0.63112 2.026,-1.00648 0.14464,-0.37888 0.22472,-1.15922 -0.85936,-2.12795 l -15.1571,-13.5442 c -1.43228,-1.27988 -3.76273,-1.28023 -5.19571,0 l -15.1571,13.54349 c -1.08408,0.96908 -1.004,1.74978 -0.85936,2.12866 0.14358,0.37536 0.59725,1.00648 2.026,1.00648 h 1.41887 v 20.46111 h -1.41217 c -0.77823,0 -1.41005,0.63182 -1.41005,1.4097 v 1.412517 h -1.76495 c -0.77823,0 -1.41005,0.63183 -1.41005,1.41005 v 2.82328 h 42.33333 v -2.82328 c 0,-0.77822 -0.63182,-1.41005 -1.41005,-1.41005" />
      <path
         inkscape:connector-curvature="0"
         id="path174"
         style="fill:#262626;fill-opacity:1;fill-rule:nonzero;stroke:none;stroke-width:0.35277775"
         d="m 112.80069,-119.63066 h -1.41111 v 14.81667 h 1.41111 z" />
      <g
         transform="matrix(0.35277777,0,0,-0.35277777,112.80069,-131.98095)"
         id="g176">
        <path
           inkscape:connector-curvature="0"
           id="path178"
           style="fill:#262626;fill-opacity:1;fill-rule:nonzero;stroke:none"
           d="M 0,0 C 0,2.206 1.791,3.991 3.997,3.991 H 12 v 4 H 3.997 C -0.414,7.991 -4,4.411 -4,0 v -10.009 h 4 z" />
      </g>
      <g
         transform="matrix(0.35277777,0,0,-0.35277777,147.37292,-131.98095)"
         id="g180">
        <path
           inkscape:connector-curvature="0"
           id="path182"
           style="fill:#262626;fill-opacity:1;fill-rule:nonzero;stroke:none"
           d="M 0,0 V -10.009 H 4 V 0 C 4,4.411 0.414,7.991 -3.997,7.991 H -14 v -4 H -3.997 C -1.791,3.991 0,2.206 0,0" />
      </g>
      <path
         inkscape:connector-curvature="0"
         id="path184"
         style="fill:#262626;fill-opacity:1;fill-rule:nonzero;stroke:none;stroke-width:0.35277775"
         d="m 147.37292,-104.81399 h 1.41111 v -14.81667 h -1.41111 z" />
      <g
         transform="matrix(0.35277777,0,0,-0.35277777,132.55639,-113.98621)"
         id="g186">
        <path
           inkscape:connector-curvature="0"
           id="path188"
           style="fill:#e0e0e0;fill-opacity:1;fill-rule:nonzero;stroke:none"
           d="M 0,0 H -14.001 C -15.101,0 -16,-0.894 -16,-1.994 V -26 H 2 V -1.994 C 2,-0.894 1.1,0 0,0" />
      </g>
    </g>
  </g>
</svg>
