<?xml version="1.0" encoding="UTF-8" standalone="no"?>
<!-- Created with Inkscape (http://www.inkscape.org/) -->

<svg
   xmlns:dc="http://purl.org/dc/elements/1.1/"
   xmlns:cc="http://creativecommons.org/ns#"
   xmlns:rdf="http://www.w3.org/1999/02/22-rdf-syntax-ns#"
   xmlns:svg="http://www.w3.org/2000/svg"
   xmlns="http://www.w3.org/2000/svg"
   xmlns:sodipodi="http://sodipodi.sourceforge.net/DTD/sodipodi-0.dtd"
   xmlns:inkscape="http://www.inkscape.org/namespaces/inkscape"
   width="512mm"
   height="512mm"
   viewBox="0 0 512 512"
   version="1.1"
   id="svg1128"
   inkscape:version="0.92.3 (2405546, 2018-03-11)"
   sodipodi:docname="kid.svg">
  <defs
     id="defs1122" />
  <sodipodi:namedview
     id="base"
     pagecolor="#ffffff"
     bordercolor="#666666"
     borderopacity="1.0"
     inkscape:pageopacity="0.0"
     inkscape:pageshadow="2"
     inkscape:zoom="0.36"
     inkscape:cx="396.85039"
     inkscape:cy="1116.8154"
     inkscape:document-units="mm"
     inkscape:current-layer="layer1"
     showgrid="false"
     inkscape:window-width="1853"
     inkscape:window-height="1025"
     inkscape:window-x="67"
     inkscape:window-y="27"
     inkscape:window-maximized="1" />
  <metadata
     id="metadata1125">
    <rdf:RDF>
      <cc:Work
         rdf:about="">
        <dc:format>image/svg+xml</dc:format>
        <dc:type
           rdf:resource="http://purl.org/dc/dcmitype/StillImage" />
        <dc:title></dc:title>
      </cc:Work>
    </rdf:RDF>
  </metadata>
  <g
     inkscape:label="Capa 1"
     inkscape:groupmode="layer"
     id="layer1"
     transform="translate(0,215)">
    <g
       transform="matrix(3.8725169,0,0,-3.8725169,-1014.9901,2268.3008)"
       id="g4560">
      <g
         transform="translate(346,554)"
         id="g714">
        <path
           inkscape:connector-curvature="0"
           id="path716"
           style="fill:#ff7415;fill-opacity:1;fill-rule:nonzero;stroke:none"
           d="m 0,0 c -3.859,0 -7,3.141 -7,7 0,3.859 3.141,7 7,7 C 3.859,14 7,10.859 7,7 7,3.141 3.859,0 0,0 m -30,0 c -3.859,0 -7,3.141 -7,7 0,3.859 3.141,7 7,7 3.859,0 7,-3.141 7,-7 0,-3.859 -3.141,-7 -7,-7 M 0,18 c -5.382,0 -9.865,-3.887 -10.809,-9 h -8.382 c -0.944,5.113 -5.427,9 -10.809,9 -6.065,0 -11,-4.935 -11,-11 0,-6.065 4.935,-11 11,-11 5.382,0 9.865,3.887 10.809,9 h 8.382 C -9.865,-0.113 -5.382,-4 0,-4 6.065,-4 11,0.935 11,7 11,13.065 6.065,18 0,18" />
      </g>
      <g
         transform="translate(369,553)"
         id="g718">
        <path
           inkscape:connector-curvature="0"
           id="path720"
           style="fill:#262626;fill-opacity:1;fill-rule:nonzero;stroke:none"
           d="m 0,0 h -2 v -2 c 0,-19.851 -16.149,-36 -36,-36 -19.851,0 -36,16.149 -36,36 v 2 h -2 c -4.411,0 -8,3.589 -8,8 0,4.411 3.589,8 8,8 h 2 v 10 h 34 c 5.571,0 10.377,3.278 12.63,8 H -18 c 1.103,0 2,-0.897 2,-2 C -16,23.178 -8.822,16 0,16 4.411,16 8,12.411 8,8 8,3.589 4.411,0 0,0 m -80,26 h 2 v -6.167 c -0.688,-0.116 -1.356,-0.293 -2,-0.521 z m -10,8 c 0,1.099 0.48,2.719 4.617,4.098 C -72.689,42.215 -46.869,50 -40,50 c 5.514,0 10,-4.486 10,-10 0,-5.514 -4.486,-10 -10,-10 h -46 c -2.206,0 -4,1.794 -4,4 m 52,40 C -14.841,74 4,55.159 4,32 V 19.3 C 2.747,19.745 1.404,20 0,20 c -6.617,0 -12,5.383 -12,12 0,3.309 -2.691,6 -6,6 h -8.16 c 0.095,0.655 0.16,1.319 0.16,2 0,7.72 -6.28,14 -14,14 -6.533,0 -26.479,-5.836 -38.076,-9.408 C -72.636,62.056 -56.585,74 -38,74 m -8,6 c 0,1.103 0.897,2 2,2 h 2 c 1.103,0 2,-0.897 2,-2 v -2.042 c -2.034,-0.086 -4.037,-0.305 -6,-0.645 z m 12,2 h 2 c 1.103,0 2,-0.897 2,-2 v -2.711 c -1.961,0.346 -3.962,0.573 -6,0.66 V 80 c 0,1.103 0.897,2 2,2 M 8,16.919 V 32 C 8,53.213 -6.438,71.109 -26,76.402 V 80 c 0,3.309 -2.691,6 -6,6 h -2 c -1.538,0 -2.937,-0.586 -4,-1.541 -1.063,0.955 -2.462,1.541 -4,1.541 h -2 c -3.309,0 -6,-2.691 -6,-6 V 76.431 C -65.872,72.198 -78.502,59.718 -82.622,43.176 -84.878,42.465 -86.348,41.99 -86.633,41.897 -91.521,40.268 -94,37.61 -94,34 c 0,-4.411 3.589,-8 8,-8 h 2 v -9 h 0.086 C -86.414,14.799 -88,11.584 -88,8 -88,2.05 -83.646,-2.902 -77.958,-3.84 -76.993,-25.046 -59.439,-42 -38,-42 -16.561,-42 0.993,-25.046 1.958,-3.84 7.646,-2.902 12,2.05 12,8 c 0,3.542 -1.552,6.721 -4,8.919" />
      </g>
      <g
         transform="translate(319,561)"
         id="g722">
        <path
           inkscape:connector-curvature="0"
           id="path724"
           style="fill:#262626;fill-opacity:1;fill-rule:nonzero;stroke:none"
           d="m 0,0 c 0,1.654 -1.346,3 -3,3 -1.654,0 -3,-1.346 -3,-3 0,-1.654 1.346,-3 3,-3 1.654,0 3,1.346 3,3" />
      </g>
      <g
         transform="translate(346,564)"
         id="g726">
        <path
           inkscape:connector-curvature="0"
           id="path728"
           style="fill:#262626;fill-opacity:1;fill-rule:nonzero;stroke:none"
           d="m 0,0 c -1.654,0 -3,-1.346 -3,-3 0,-1.654 1.346,-3 3,-3 1.654,0 3,1.346 3,3 0,1.654 -1.346,3 -3,3" />
      </g>
      <g
         transform="translate(320,538)"
         id="g730">
        <path
           inkscape:connector-curvature="0"
           id="path732"
           style="fill:#262626;fill-opacity:1;fill-rule:nonzero;stroke:none"
           d="m 0,0 h 22 v -1 c 0,-0.338 -0.021,-0.67 -0.051,-1 H 0.051 C 0.021,-1.67 0,-1.338 0,-1 Z m 11,-12 c -4.264,0 -7.961,2.444 -9.786,6 H 20.786 C 18.961,-9.556 15.264,-12 11,-12 M -4,-1 c 0,-8.271 6.729,-15 15,-15 8.271,0 15,6.729 15,15 V 4 H -4 Z" />
      </g>
      <path
         inkscape:connector-curvature="0"
         id="path734"
         style="fill:#262626;fill-opacity:1;fill-rule:nonzero;stroke:none"
         d="m 334,552 h -6 v -4 h 6 z" />
      <g
         transform="translate(331,618)"
         id="g736">
        <path
           inkscape:connector-curvature="0"
           id="path738"
           style="fill:#262626;fill-opacity:1;fill-rule:nonzero;stroke:none"
           d="m 0,0 c 9.535,0 18.603,-4.124 24.877,-11.315 1.278,-1.466 2.433,-3.053 3.433,-4.718 0.376,-0.624 1.038,-0.97 1.716,-0.97 0.351,0 0.705,0.092 1.029,0.285 0.946,0.57 1.253,1.798 0.684,2.745 -1.121,1.866 -2.416,3.645 -3.848,5.286 C 20.856,-0.624 10.69,4 0,4 -1.104,4 -2,3.104 -2,2 -2,0.896 -1.104,0 0,0" />
      </g>
      <g
         transform="translate(292,564)"
         id="g740">
        <path
           inkscape:connector-curvature="0"
           id="path742"
           style="fill:#262626;fill-opacity:1;fill-rule:nonzero;stroke:none"
           d="m 0,0 c -1.654,0 -3,-1.346 -3,-3 0,-1.654 1.346,-3 3,-3 1.654,0 3,1.346 3,3 0,1.654 -1.346,3 -3,3" />
      </g>
      <g
         transform="translate(370,564)"
         id="g744">
        <path
           inkscape:connector-curvature="0"
           id="path746"
           style="fill:#262626;fill-opacity:1;fill-rule:nonzero;stroke:none"
           d="m 0,0 c -1.654,0 -3,-1.346 -3,-3 0,-1.654 1.346,-3 3,-3 1.654,0 3,1.346 3,3 0,1.654 -1.346,3 -3,3" />
      </g>
      <g
         transform="translate(329,599)"
         id="g748">
        <path
           inkscape:connector-curvature="0"
           id="path750"
           style="fill:#e0e0e0;fill-opacity:1;fill-rule:nonzero;stroke:none"
           d="m 0,0 c -2,0 -20,-4 -20,-4 -3,-1 -4,-1.791 -4,-4 0,-2.209 1.791,-4 4,-4 H 0 c 3.314,0 6,2.686 6,6 0,3.314 -2.686,6 -6,6" />
      </g>
    </g>
  </g>
</svg>
